<svg xmlns="http://www.w3.org/2000/svg" style="display: none;">
  <defs>
    <linearGradient id="cat-pink" x1="0%" y1="0%" x2="100%" y2="100%">
      <stop offset="0%" stop-color="#f472b6"/>
      <stop offset="100%" stop-color="#ec4899"/>
    </linearGradient>
    <linearGradient id="cat-gold" x1="0%" y1="0%" x2="100%" y2="100%">
      <stop offset="0%" stop-color="#fcd34d"/>
      <stop offset="100%" stop-color="#f59e0b"/>
    </linearGradient>
    <linearGradient id="cat-teal" x1="0%" y1="0%" x2="100%" y2="100%">
      <stop offset="0%" stop-color="#5eead4"/>
      <stop offset="100%" stop-color="#2a9d8f"/>
    </linearGradient>
    <linearGradient id="cat-navy" x1="0%" y1="0%" x2="100%" y2="100%">
      <stop offset="0%" stop-color="#3b82f6"/>
      <stop offset="100%" stop-color="#1d3557"/>
    </linearGradient>
  </defs>

  <!-- Housing: Pink house with heart window -->
  <symbol id="cat-housing" viewBox="0 0 24 24">
    <path d="M3 10.5L12 3l9 7.5V20a2 2 0 01-2 2H5a2 2 0 01-2-2v-9.5z" fill="url(#cat-pink)"/>
    <rect x="9" y="14" width="6" height="8" rx="0.5" fill="#fff" opacity="0.3"/>
    <path d="M12 9l-2 2a1.5 1.5 0 102 2 1.5 1.5 0 102-2l-2-2z" fill="#fff" opacity="0.9"/>
    <circle cx="18" cy="6" r="0.8" fill="url(#cat-gold)"/>
    <circle cx="6" cy="5" r="0.5" fill="url(#cat-gold)"/>
  </symbol>

  <!-- Utilities: Happy lightbulb with glow -->
  <symbol id="cat-utilities" viewBox="0 0 24 24">
    <ellipse cx="12" cy="8" rx="7" ry="7" fill="url(#cat-gold)" opacity="0.2"/>
    <path d="M9 21h6M10 17h4" stroke="url(#cat-gold)" stroke-width="1.5" stroke-linecap="round"/>
    <path d="M12 2a6 6 0 00-4 10.5V15a1 1 0 001 1h6a1 1 0 001-1v-2.5A6 6 0 0012 2z" fill="url(#cat-gold)"/>
    <circle cx="10" cy="7" r="1" fill="#fff" opacity="0.8"/>
    <circle cx="14" cy="9" r="0.6" fill="#fff" opacity="0.6"/>
    <path d="M10 8q2 1.5 4 0" stroke="#f59e0b" stroke-width="0.8" stroke-linecap="round" fill="none"/>
    <path d="M4 8h2M18 8h2M6 3l1 1M18 3l-1 1" stroke="url(#cat-gold)" stroke-width="1.5" stroke-linecap="round" opacity="0.6"/>
  </symbol>

  <!-- Transport: Cute car with motion lines -->
  <symbol id="cat-transport" viewBox="0 0 24 24">
    <path d="M5 11l2-4h10l2 4" fill="url(#cat-teal)" opacity="0.3"/>
    <rect x="3" y="11" width="18" height="6" rx="2" fill="url(#cat-teal)"/>
    <circle cx="7" cy="17" r="2" fill="url(#cat-navy)"/>
    <circle cx="17" cy="17" r="2" fill="url(#cat-navy)"/>
    <circle cx="7" cy="17" r="0.8" fill="#fff" opacity="0.5"/>
    <circle cx="17" cy="17" r="0.8" fill="#fff" opacity="0.5"/>
    <rect x="6" y="8" width="5" height="3" rx="1" fill="url(#cat-navy)" opacity="0.3"/>
    <rect x="13" y="8" width="5" height="3" rx="1" fill="url(#cat-navy)" opacity="0.3"/>
    <circle cx="18" cy="12" r="1" fill="url(#cat-gold)"/>
    <path d="M1 12h1M1 14h2M1 16h1" stroke="url(#cat-pink)" stroke-width="1" stroke-linecap="round" opacity="0.6"/>
  </symbol>

  <!-- Food: Shopping bag with apple -->
  <symbol id="cat-food" viewBox="0 0 24 24">
    <path d="M6 6h12l-1 14a2 2 0 01-2 2H9a2 2 0 01-2-2L6 6z" fill="url(#cat-teal)"/>
    <path d="M9 6V4a3 3 0 016 0v2" stroke="url(#cat-teal)" stroke-width="2" fill="none"/>
    <circle cx="12" cy="13" r="3.5" fill="url(#cat-pink)"/>
    <path d="M12 10c1-1 2-1 2.5-0.5" stroke="#2a9d8f" stroke-width="1" stroke-linecap="round"/>
    <ellipse cx="12" cy="10.5" rx="0.8" ry="1.2" fill="#2a9d8f"/>
    <circle cx="10.5" cy="12.5" r="0.5" fill="#fff" opacity="0.5"/>
  </symbol>

  <!-- Family: Parent with child silhouette -->
  <symbol id="cat-family" viewBox="0 0 24 24">
    <circle cx="9" cy="6" r="3.5" fill="url(#cat-pink)"/>
    <path d="M9 10c-4 0-6 2.5-6 5.5V20h12v-4.5c0-3-2-5.5-6-5.5z" fill="url(#cat-pink)" opacity="0.85"/>
    <circle cx="17" cy="10" r="2.5" fill="url(#cat-gold)"/>
    <path d="M17 13c-2.5 0-4 2-4 4v3h8v-3c0-2-1.5-4-4-4z" fill="url(#cat-gold)" opacity="0.85"/>
    <circle cx="9" cy="5.5" r="0.5" fill="#fff" opacity="0.5"/>
    <circle cx="17" cy="9.5" r="0.4" fill="#fff" opacity="0.5"/>
    <circle cx="5" cy="3" r="0.6" fill="url(#cat-teal)"/>
  </symbol>

  <!-- Personal: Music note with heart -->
  <symbol id="cat-personal" viewBox="0 0 24 24">
    <circle cx="7" cy="18" r="3" fill="url(#cat-pink)"/>
    <path d="M10 18V6l8-3v12" fill="none" stroke="url(#cat-pink)" stroke-width="2"/>
    <circle cx="18" cy="15" r="3" fill="url(#cat-pink)" opacity="0.8"/>
    <path d="M14 7l-2 2a1 1 0 101.5 1.5 1 1 0 101.5-1.5l-1-2z" fill="url(#cat-gold)"/>
    <circle cx="7" cy="17.5" r="0.5" fill="#fff" opacity="0.5"/>
    <circle cx="4" cy="10" r="0.7" fill="url(#cat-gold)"/>
    <circle cx="20" cy="8" r="0.5" fill="url(#cat-teal)"/>
  </symbol>

  <!-- Debt: Broken chain links -->
  <symbol id="cat-debt" viewBox="0 0 24 24">
    <ellipse cx="7" cy="12" rx="4" ry="5" fill="none" stroke="url(#cat-navy)" stroke-width="3"/>
    <ellipse cx="17" cy="12" rx="4" ry="5" fill="none" stroke="url(#cat-navy)" stroke-width="3"/>
    <path d="M10 10l4 4M10 14l4-4" stroke="url(#cat-pink)" stroke-width="2" stroke-linecap="round"/>
    <circle cx="12" cy="12" r="2" fill="url(#cat-gold)"/>
    <circle cx="3" cy="8" r="0.7" fill="url(#cat-gold)"/>
    <circle cx="21" cy="16" r="0.7" fill="url(#cat-gold)"/>
    <circle cx="12" cy="4" r="0.5" fill="url(#cat-pink)"/>
  </symbol>

  <!-- Savings: Mini piggy bank (matches logo) -->
  <symbol id="cat-savings" viewBox="0 0 24 24">
    <ellipse cx="11" cy="14" rx="7" ry="5" fill="url(#cat-pink)"/>
    <circle cx="16" cy="11" r="3.5" fill="url(#cat-pink)"/>
    <ellipse cx="19" cy="12" rx="2" ry="1.3" fill="#fda4af"/>
    <circle cx="18" cy="11.8" r="0.5" fill="#db2777"/>
    <circle cx="20" cy="11.8" r="0.5" fill="#db2777"/>
    <circle cx="16.5" cy="9.5" r="0.8" fill="#1d3557"/>
    <circle cx="16.7" cy="9.3" r="0.25" fill="#fff"/>
    <ellipse cx="15" cy="7" rx="1" ry="1.5" fill="#db2777" transform="rotate(-15 15 7)"/>
    <rect x="8" y="9" width="3" height="1" rx="0.5" fill="#db2777"/>
    <ellipse cx="10" cy="6" rx="2" ry="2" fill="url(#cat-gold)"/>
    <text x="10" y="7.5" font-family="Arial" font-size="3" font-weight="bold" fill="#92400e" text-anchor="middle">£</text>
    <ellipse cx="6" cy="18" rx="1" ry="1.5" fill="#db2777"/>
    <ellipse cx="9" cy="19" rx="1" ry="1.5" fill="#db2777"/>
    <ellipse cx="13" cy="19" rx="1" ry="1.5" fill="#db2777"/>
    <ellipse cx="16" cy="17" rx="1" ry="1.5" fill="#db2777"/>
    <path d="M4 13q-2-1-1.5 1t1.5 2" stroke="#db2777" stroke-width="1.5" fill="none" stroke-linecap="round"/>
  </symbol>
</svg>
